<svg width="147" height="67" viewBox="0 0 147 67" fill="none" xmlns="http://www.w3.org/2000/svg">
<path d="M58.683 3.48683C57.8543 2.11394 56.3598 1.27368 54.7466 1.27368H51.5268L63.7612 22.5L51.5268 43.7264H54.7458C56.3598 43.7264 57.8543 42.8854 58.6823 41.5132L69.582 22.5L58.683 3.48683Z" fill="black"/>
<path d="M48.0855 1.27368H5.81715C3.31561 1.27368 1.28845 3.30978 1.28845 5.82245V39.1776C1.28845 41.6895 3.31635 43.7264 5.81715 43.7264H48.0847L60.1615 22.5L48.0855 1.27368Z" fill="black"/>
<path d="M8.35304 13.0659V31.9339H11.493V18.0974L20.1284 31.9339H23.2684V13.0659H20.1284V26.9024L11.493 13.0659H8.35304ZM26.4072 13.0659V31.9339H29.5483V13.0659H26.4072ZM32.6882 13.0659V31.9339H35.8271V24.0722H44.4625V31.9339H47.6025V13.0659H44.4625V20.9276H35.8271V13.0659H32.6882Z" fill="#DAE9E7"/>
<path d="M10.5712 49.977H8.31016V49.217H13.7347V49.977H11.4737V56H10.5712V49.977ZM14.2592 49.217H15.0667V51.8105H15.0857C15.1491 51.6585 15.2377 51.5318 15.3517 51.4305C15.4657 51.3228 15.5924 51.2373 15.7317 51.174C15.8774 51.1043 16.0262 51.0537 16.1782 51.022C16.3366 50.9903 16.4886 50.9745 16.6342 50.9745C16.9572 50.9745 17.2264 51.0188 17.4417 51.1075C17.6571 51.1962 17.8312 51.3197 17.9642 51.478C18.0972 51.6363 18.1891 51.8263 18.2397 52.048C18.2967 52.2633 18.3252 52.504 18.3252 52.77V56H17.5177V52.675C17.5177 52.371 17.4291 52.1303 17.2517 51.953C17.0744 51.7757 16.8306 51.687 16.5202 51.687C16.2732 51.687 16.0579 51.725 15.8742 51.801C15.6969 51.877 15.5481 51.9847 15.4277 52.124C15.3074 52.2633 15.2156 52.428 15.1522 52.618C15.0952 52.8017 15.0667 53.0043 15.0667 53.226V56H14.2592V49.217ZM22.8535 53.074C22.8409 52.884 22.7965 52.7035 22.7205 52.5325C22.6509 52.3615 22.5527 52.2158 22.426 52.0955C22.3057 51.9688 22.16 51.8707 21.989 51.801C21.8244 51.725 21.6407 51.687 21.438 51.687C21.229 51.687 21.039 51.725 20.868 51.801C20.7034 51.8707 20.5609 51.9688 20.4405 52.0955C20.3202 52.2222 20.2252 52.371 20.1555 52.542C20.0859 52.7067 20.0447 52.884 20.032 53.074H22.8535ZM23.6325 54.442C23.5249 54.993 23.2874 55.4078 22.92 55.6865C22.5527 55.9652 22.0904 56.1045 21.533 56.1045C21.1404 56.1045 20.7984 56.0412 20.507 55.9145C20.222 55.7878 19.9814 55.6105 19.785 55.3825C19.5887 55.1545 19.4399 54.8822 19.3385 54.5655C19.2435 54.2488 19.1897 53.9037 19.177 53.53C19.177 53.1563 19.234 52.8143 19.348 52.504C19.462 52.1937 19.6204 51.9245 19.823 51.6965C20.032 51.4685 20.2759 51.2912 20.5545 51.1645C20.8395 51.0378 21.1499 50.9745 21.4855 50.9745C21.9225 50.9745 22.2835 51.0663 22.5685 51.25C22.8599 51.4273 23.091 51.6553 23.262 51.934C23.4394 52.2127 23.5597 52.5167 23.623 52.846C23.6927 53.1753 23.7212 53.4888 23.7085 53.7865H20.032C20.0257 54.0018 20.051 54.2077 20.108 54.404C20.165 54.594 20.2569 54.765 20.3835 54.917C20.5102 55.0627 20.6717 55.1798 20.868 55.2685C21.0644 55.3572 21.2955 55.4015 21.5615 55.4015C21.9035 55.4015 22.1822 55.3223 22.3975 55.164C22.6192 55.0057 22.7649 54.765 22.8345 54.442H23.6325ZM31.9016 51.2595C31.8003 50.7782 31.5755 50.4172 31.2271 50.1765C30.8851 49.9358 30.4766 49.8155 30.0016 49.8155C29.5963 49.8155 29.248 49.8915 28.9566 50.0435C28.6716 50.1955 28.4341 50.4013 28.2441 50.661C28.0605 50.9143 27.9243 51.2057 27.8356 51.535C27.747 51.8643 27.7026 52.2063 27.7026 52.561C27.7026 52.9473 27.747 53.3147 27.8356 53.663C27.9243 54.005 28.0605 54.3058 28.2441 54.5655C28.4341 54.8188 28.6748 55.0215 28.9661 55.1735C29.2575 55.3255 29.6058 55.4015 30.0111 55.4015C30.3088 55.4015 30.5716 55.354 30.7996 55.259C31.034 55.1577 31.2335 55.0215 31.3981 54.8505C31.5691 54.6732 31.7021 54.4642 31.7971 54.2235C31.8921 53.9828 31.9491 53.7232 31.9681 53.4445H32.8706C32.782 54.2995 32.4875 54.9645 31.9871 55.4395C31.4868 55.9145 30.8028 56.152 29.9351 56.152C29.4095 56.152 28.9503 56.0633 28.5576 55.886C28.165 55.7023 27.8388 55.4522 27.5791 55.1355C27.3195 54.8188 27.1231 54.4452 26.9901 54.0145C26.8635 53.5838 26.8001 53.1215 26.8001 52.6275C26.8001 52.1335 26.8698 51.6712 27.0091 51.2405C27.1485 50.8035 27.3511 50.4235 27.6171 50.1005C27.8895 49.7775 28.2251 49.5242 28.6241 49.3405C29.0295 49.1505 29.4918 49.0555 30.0111 49.0555C30.3658 49.0555 30.7015 49.103 31.0181 49.198C31.3348 49.293 31.6166 49.4323 31.8636 49.616C32.1106 49.7997 32.3165 50.0308 32.4811 50.3095C32.6458 50.5818 32.7535 50.8985 32.8041 51.2595H31.9016ZM34.3496 53.549C34.3496 53.8467 34.3876 54.1127 34.4636 54.347C34.5459 54.575 34.6568 54.7682 34.7961 54.9265C34.9354 55.0785 35.0969 55.1957 35.2806 55.278C35.4706 55.3603 35.6701 55.4015 35.8791 55.4015C36.0881 55.4015 36.2844 55.3603 36.4681 55.278C36.6581 55.1957 36.8228 55.0785 36.9621 54.9265C37.1014 54.7682 37.2091 54.575 37.2851 54.347C37.3674 54.1127 37.4086 53.8467 37.4086 53.549C37.4086 53.2513 37.3674 52.9885 37.2851 52.7605C37.2091 52.5262 37.1014 52.3298 36.9621 52.1715C36.8228 52.0132 36.6581 51.8928 36.4681 51.8105C36.2844 51.7282 36.0881 51.687 35.8791 51.687C35.6701 51.687 35.4706 51.7282 35.2806 51.8105C35.0969 51.8928 34.9354 52.0132 34.7961 52.1715C34.6568 52.3298 34.5459 52.5262 34.4636 52.7605C34.3876 52.9885 34.3496 53.2513 34.3496 53.549ZM33.4946 53.549C33.4946 53.188 33.5453 52.8523 33.6466 52.542C33.7479 52.2253 33.8999 51.953 34.1026 51.725C34.3053 51.4907 34.5554 51.307 34.8531 51.174C35.1508 51.041 35.4928 50.9745 35.8791 50.9745C36.2718 50.9745 36.6138 51.041 36.9051 51.174C37.2028 51.307 37.4529 51.4907 37.6556 51.725C37.8583 51.953 38.0103 52.2253 38.1116 52.542C38.2129 52.8523 38.2636 53.188 38.2636 53.549C38.2636 53.91 38.2129 54.2457 38.1116 54.556C38.0103 54.8663 37.8583 55.1387 37.6556 55.373C37.4529 55.601 37.2028 55.7815 36.9051 55.9145C36.6138 56.0412 36.2718 56.1045 35.8791 56.1045C35.4928 56.1045 35.1508 56.0412 34.8531 55.9145C34.5554 55.7815 34.3053 55.601 34.1026 55.373C33.8999 55.1387 33.7479 54.8663 33.6466 54.556C33.5453 54.2457 33.4946 53.91 33.4946 53.549ZM39.1207 51.0885H39.8807V51.8105H39.8997C40.267 51.2532 40.7958 50.9745 41.4862 50.9745C41.7902 50.9745 42.0657 51.0378 42.3127 51.1645C42.5597 51.2912 42.7338 51.5065 42.8352 51.8105C42.9998 51.5445 43.2152 51.3387 43.4812 51.193C43.7535 51.0473 44.0512 50.9745 44.3742 50.9745C44.6212 50.9745 44.8428 51.003 45.0392 51.06C45.2418 51.1107 45.4128 51.193 45.5522 51.307C45.6978 51.421 45.8087 51.5698 45.8847 51.7535C45.967 51.9308 46.0082 52.1462 46.0082 52.3995V56H45.2007V52.7795C45.2007 52.6275 45.188 52.485 45.1627 52.352C45.1373 52.219 45.0898 52.105 45.0202 52.01C44.9505 51.9087 44.8523 51.8295 44.7257 51.7725C44.6053 51.7155 44.447 51.687 44.2507 51.687C43.8517 51.687 43.5382 51.801 43.3102 52.029C43.0822 52.257 42.9682 52.561 42.9682 52.941V56H42.1607V52.7795C42.1607 52.6212 42.1448 52.4755 42.1132 52.3425C42.0878 52.2095 42.0403 52.0955 41.9707 52.0005C41.901 51.8992 41.806 51.8232 41.6857 51.7725C41.5717 51.7155 41.4228 51.687 41.2392 51.687C41.0048 51.687 40.8022 51.7345 40.6312 51.8295C40.4665 51.9245 40.3303 52.0385 40.2227 52.1715C40.1213 52.3045 40.0453 52.4438 39.9947 52.5895C39.9503 52.7288 39.9282 52.846 39.9282 52.941V56H39.1207V51.0885ZM47.1248 51.0885H47.8848V51.8105H47.9038C48.2711 51.2532 48.8 50.9745 49.4903 50.9745C49.7943 50.9745 50.0698 51.0378 50.3168 51.1645C50.5638 51.2912 50.738 51.5065 50.8393 51.8105C51.004 51.5445 51.2193 51.3387 51.4853 51.193C51.7576 51.0473 52.0553 50.9745 52.3783 50.9745C52.6253 50.9745 52.847 51.003 53.0433 51.06C53.246 51.1107 53.417 51.193 53.5563 51.307C53.702 51.421 53.8128 51.5698 53.8888 51.7535C53.9711 51.9308 54.0123 52.1462 54.0123 52.3995V56H53.2048V52.7795C53.2048 52.6275 53.1921 52.485 53.1668 52.352C53.1415 52.219 53.094 52.105 53.0243 52.01C52.9546 51.9087 52.8565 51.8295 52.7298 51.7725C52.6095 51.7155 52.4511 51.687 52.2548 51.687C51.8558 51.687 51.5423 51.801 51.3143 52.029C51.0863 52.257 50.9723 52.561 50.9723 52.941V56H50.1648V52.7795C50.1648 52.6212 50.149 52.4755 50.1173 52.3425C50.092 52.2095 50.0445 52.0955 49.9748 52.0005C49.9051 51.8992 49.8101 51.8232 49.6898 51.7725C49.5758 51.7155 49.427 51.687 49.2433 51.687C49.009 51.687 48.8063 51.7345 48.6353 51.8295C48.4706 51.9245 48.3345 52.0385 48.2268 52.1715C48.1255 52.3045 48.0495 52.4438 47.9988 52.5895C47.9545 52.7288 47.9323 52.846 47.9323 52.941V56H47.1248V51.0885ZM55.7179 53.549C55.7179 53.8467 55.7559 54.1127 55.8319 54.347C55.9142 54.575 56.0251 54.7682 56.1644 54.9265C56.3037 55.0785 56.4652 55.1957 56.6489 55.278C56.8389 55.3603 57.0384 55.4015 57.2474 55.4015C57.4564 55.4015 57.6527 55.3603 57.8364 55.278C58.0264 55.1957 58.1911 55.0785 58.3304 54.9265C58.4697 54.7682 58.5774 54.575 58.6534 54.347C58.7357 54.1127 58.7769 53.8467 58.7769 53.549C58.7769 53.2513 58.7357 52.9885 58.6534 52.7605C58.5774 52.5262 58.4697 52.3298 58.3304 52.1715C58.1911 52.0132 58.0264 51.8928 57.8364 51.8105C57.6527 51.7282 57.4564 51.687 57.2474 51.687C57.0384 51.687 56.8389 51.7282 56.6489 51.8105C56.4652 51.8928 56.3037 52.0132 56.1644 52.1715C56.0251 52.3298 55.9142 52.5262 55.8319 52.7605C55.7559 52.9885 55.7179 53.2513 55.7179 53.549ZM54.8629 53.549C54.8629 53.188 54.9136 52.8523 55.0149 52.542C55.1162 52.2253 55.2682 51.953 55.4709 51.725C55.6736 51.4907 55.9237 51.307 56.2214 51.174C56.5191 51.041 56.8611 50.9745 57.2474 50.9745C57.6401 50.9745 57.9821 51.041 58.2734 51.174C58.5711 51.307 58.8212 51.4907 59.0239 51.725C59.2266 51.953 59.3786 52.2253 59.4799 52.542C59.5812 52.8523 59.6319 53.188 59.6319 53.549C59.6319 53.91 59.5812 54.2457 59.4799 54.556C59.3786 54.8663 59.2266 55.1387 59.0239 55.373C58.8212 55.601 58.5711 55.7815 58.2734 55.9145C57.9821 56.0412 57.6401 56.1045 57.2474 56.1045C56.8611 56.1045 56.5191 56.0412 56.2214 55.9145C55.9237 55.7815 55.6736 55.601 55.4709 55.373C55.2682 55.1387 55.1162 54.8663 55.0149 54.556C54.9136 54.2457 54.8629 53.91 54.8629 53.549ZM60.489 51.0885H61.249V51.8675H61.268C61.6037 51.2722 62.1357 50.9745 62.864 50.9745C63.187 50.9745 63.4562 51.0188 63.6715 51.1075C63.8868 51.1962 64.061 51.3197 64.194 51.478C64.327 51.6363 64.4188 51.8263 64.4695 52.048C64.5265 52.2633 64.555 52.504 64.555 52.77V56H63.7475V52.675C63.7475 52.371 63.6588 52.1303 63.4815 51.953C63.3042 51.7757 63.0603 51.687 62.75 51.687C62.503 51.687 62.2877 51.725 62.104 51.801C61.9267 51.877 61.7778 51.9847 61.6575 52.124C61.5372 52.2633 61.4453 52.428 61.382 52.618C61.325 52.8017 61.2965 53.0043 61.2965 53.226V56H60.489V51.0885ZM28.0615 59.217H32.517V59.977H28.964V62.1335H32.08V62.8935H28.964V66H28.0615V59.217ZM37.3546 66H36.5946V65.221H36.5756C36.4046 65.525 36.1861 65.7498 35.9201 65.8955C35.6541 66.0348 35.3406 66.1045 34.9796 66.1045C34.6566 66.1045 34.3874 66.0633 34.1721 65.981C33.9567 65.8923 33.7826 65.7688 33.6496 65.6105C33.5166 65.4522 33.4216 65.2653 33.3646 65.05C33.3139 64.8283 33.2886 64.5845 33.2886 64.3185V61.0885H34.0961V64.4135C34.0961 64.7175 34.1847 64.9582 34.3621 65.1355C34.5394 65.3128 34.7832 65.4015 35.0936 65.4015C35.3406 65.4015 35.5527 65.3635 35.7301 65.2875C35.9137 65.2115 36.0657 65.1038 36.1861 64.9645C36.3064 64.8252 36.3951 64.6637 36.4521 64.48C36.5154 64.29 36.5471 64.0842 36.5471 63.8625V61.0885H37.3546V66ZM38.4724 61.0885H39.2324V61.8675H39.2514C39.587 61.2722 40.119 60.9745 40.8474 60.9745C41.1704 60.9745 41.4395 61.0188 41.6549 61.1075C41.8702 61.1962 42.0444 61.3197 42.1774 61.478C42.3104 61.6363 42.4022 61.8263 42.4529 62.048C42.5099 62.2633 42.5384 62.504 42.5384 62.77V66H41.7309V62.675C41.7309 62.371 41.6422 62.1303 41.4649 61.953C41.2875 61.7757 41.0437 61.687 40.7334 61.687C40.4864 61.687 40.271 61.725 40.0874 61.801C39.91 61.877 39.7612 61.9847 39.6409 62.124C39.5205 62.2633 39.4287 62.428 39.3654 62.618C39.3084 62.8017 39.2799 63.0043 39.2799 63.226V66H38.4724V61.0885ZM44.2452 63.587C44.2452 63.815 44.2737 64.0398 44.3307 64.2615C44.394 64.4768 44.4858 64.67 44.6062 64.841C44.7328 65.012 44.8912 65.1482 45.0812 65.2495C45.2775 65.3508 45.5055 65.4015 45.7652 65.4015C46.0375 65.4015 46.2687 65.3477 46.4587 65.24C46.6487 65.1323 46.8038 64.993 46.9242 64.822C47.0445 64.6447 47.13 64.4452 47.1807 64.2235C47.2377 64.0018 47.2662 63.777 47.2662 63.549C47.2662 63.3083 47.2377 63.0772 47.1807 62.8555C47.1237 62.6275 47.0318 62.428 46.9052 62.257C46.7848 62.086 46.6265 61.9498 46.4302 61.8485C46.2338 61.7408 45.9963 61.687 45.7177 61.687C45.4453 61.687 45.2142 61.7408 45.0242 61.8485C44.8342 61.9562 44.6822 62.0987 44.5682 62.276C44.4542 62.4533 44.3718 62.656 44.3212 62.884C44.2705 63.112 44.2452 63.3463 44.2452 63.587ZM48.0452 66H47.2377V65.335H47.2187C47.0857 65.6073 46.8767 65.8037 46.5917 65.924C46.3067 66.0443 45.9932 66.1045 45.6512 66.1045C45.2712 66.1045 44.9387 66.0348 44.6537 65.8955C44.375 65.7562 44.1407 65.5693 43.9507 65.335C43.767 65.1007 43.6277 64.8283 43.5327 64.518C43.4377 64.2077 43.3902 63.8783 43.3902 63.53C43.3902 63.1817 43.4345 62.8523 43.5232 62.542C43.6182 62.2317 43.7575 61.9625 43.9412 61.7345C44.1312 61.5002 44.3655 61.3165 44.6442 61.1835C44.9292 61.0442 45.2585 60.9745 45.6322 60.9745C45.7588 60.9745 45.895 60.9872 46.0407 61.0125C46.1863 61.0378 46.332 61.0822 46.4777 61.1455C46.6233 61.2025 46.7595 61.2817 46.8862 61.383C47.0192 61.478 47.13 61.5983 47.2187 61.744H47.2377V59.217H48.0452V66Z" fill="black"/>
</svg>
