<svg xmlns="http://www.w3.org/2000/svg" width="64" height="64" viewBox="0 0 64 64" fill="none">
  <path d="M25.7484 18.0389L19.9873 23.7925H25.7484V18.0389ZM18.2759 30.7312H15.9234C11.1822 30.7312 7.30206 26.8512 7.30206 22.1099C7.30206 17.3685 11.1821 13.4885 15.9234 13.4885C18.9071 13.4885 27.0386 13.4923 35.1207 13.496C39.8332 13.4998 44.5959 13.5035 54.3143 13.5035C54.7856 13.5035 54.9881 14.0923 54.6331 14.3898L50.7781 18.096C49.8456 18.9923 51.2106 20.4385 52.1569 19.5273L58.7371 13.1987C59.1409 12.8087 59.1409 12.1575 58.7371 11.7675L52.1569 5.43522C51.2219 4.53522 49.8356 5.96022 50.7781 6.86647L54.6581 10.5977C54.9844 10.909 54.7543 11.4552 54.3106 11.4552C54.3106 11.459 35.1629 11.4552 35.117 11.4552C27.4381 11.4515 54.3106 11.4552 15.9234 11.4552C10.0631 11.4552 5.26846 16.2452 5.26846 22.1102C5.26846 27.9715 10.0622 32.7651 15.9234 32.7651H18.2759V30.7312ZM18.2759 33.7637H15.9234C9.50953 33.7637 4.26953 28.5237 4.26953 22.1098C4.26953 15.696 9.50953 10.456 15.9234 10.456H35.117C42.6919 10.4597 23.3143 10.456 53.0706 10.456L50.0869 7.58598C48.1906 5.76096 50.9581 2.90224 52.8469 4.716L59.4271 11.0483C60.2421 11.8308 60.2421 13.1358 59.4271 13.9145L52.8469 20.2468C50.9506 22.068 48.2019 19.1905 50.0869 17.3805L53.0744 14.503C49.4031 14.503 42.2819 14.4993 35.1208 14.493C30.4045 14.493 25.7384 14.4893 15.9235 14.4893C11.7347 14.4893 8.30212 17.9231 8.30212 22.1106C8.30212 26.2994 11.7359 29.732 15.9235 29.732H18.2759V24.3032C18.2759 24.1719 18.3259 24.0444 18.4247 23.9494L25.9783 16.4017C26.067 16.3129 26.1908 16.2604 26.3295 16.2604C31.4183 16.2567 36.5018 16.2604 41.5909 16.2642C44.0359 16.2679 46.0309 18.2592 46.0309 20.7042V30.1442H48.3833C54.7972 30.1442 60.0372 35.3842 60.0372 41.7981C60.0372 48.2119 54.7972 53.4519 48.3833 53.4519C22.7897 53.4519 49.6621 53.4519 29.1897 53.4482C21.6148 53.4482 40.9924 53.4519 11.2361 53.4519L14.2199 56.3219C16.1161 58.1469 13.3486 61.0056 11.4599 59.1919L4.87961 52.8596C4.06462 52.0771 4.06836 50.7721 4.87961 49.9896L11.4599 43.6574C13.3561 41.8399 16.1049 44.7174 14.2199 46.5273L11.2324 49.4048C14.9036 49.4048 22.0249 49.4086 29.1897 49.4123C33.9022 49.4161 38.5684 49.4198 48.3833 49.4198C52.572 49.4198 56.0046 45.9861 56.0046 41.7985C56.0046 37.6097 52.5709 34.1772 48.3833 34.1772H46.0308V47.1494C46.0308 47.4257 45.8071 47.6494 45.5308 47.6494H22.7148C20.2698 47.6494 18.2748 45.6544 18.2748 43.2094V33.763L18.2759 33.7637ZM34.4759 24.6288L37.4771 21.0963C39.0321 19.2713 41.8246 21.6238 40.2583 23.4638L36.0696 28.385C35.3859 29.26 34.2808 29.445 33.3796 28.605L30.3183 25.7525C28.5608 24.1188 31.0346 21.4263 32.8096 23.0776L34.4759 24.6288ZM38.2347 21.7412L34.9184 25.6387C34.7446 25.8837 34.3934 25.915 34.1747 25.7137L32.1296 23.8075C31.3259 23.06 30.2096 24.29 30.9959 25.0225L34.0571 27.875C34.3159 28.1162 34.8334 28.2862 35.2971 27.7575L39.4996 22.8175C40.2084 21.9862 38.9334 20.9225 38.2346 21.7412L38.2347 21.7412ZM40.5559 41.2362C41.2109 41.2362 41.2109 42.2349 40.5559 42.2349H23.7532C23.0944 42.2349 23.0944 41.2362 23.7532 41.2362H40.5559ZM40.5559 32.2186C41.2109 32.2186 41.2109 33.2211 40.5559 33.2211H23.7532C23.0944 33.2211 23.0944 32.2186 23.7532 32.2186H40.5559ZM40.5559 36.7298C41.2109 36.7298 41.2109 37.7286 40.5559 37.7286H23.7532C23.0944 37.7286 23.0944 36.7298 23.7532 36.7298H40.5559ZM19.2748 24.796V43.2072C19.2748 45.0996 20.8236 46.6472 22.7148 46.6472H45.0311V20.7032C45.0311 18.8144 43.4786 17.2632 41.5911 17.2632C36.6448 17.2557 31.6988 17.2532 26.7521 17.2557V24.2957C26.7521 24.5719 26.5259 24.7957 26.2484 24.7957L19.2748 24.796ZM46.03 31.1421V33.1758H48.3825C53.1237 33.1758 57.0038 37.0558 57.0038 41.7972C57.0038 46.5385 53.1238 50.4185 48.3825 50.4185C45.3988 50.4185 37.271 50.4148 29.1889 50.4085C24.4726 50.4085 19.71 50.4048 9.99156 50.4048C9.52031 50.4048 9.3178 49.8135 9.67281 49.5185L13.5278 45.8086C14.4603 44.9161 13.099 43.466 12.149 44.3773L5.56875 50.7096C5.165 51.0996 5.165 51.7508 5.56875 52.1408L12.149 58.4731C13.084 59.3694 14.4702 57.9481 13.5278 57.0418L9.65153 53.3081C9.32528 52.9931 9.55277 52.4506 9.99528 52.4506C9.99528 52.4468 29.143 52.4506 29.1889 52.4506H48.3825C54.2427 52.4506 59.0374 47.6568 59.0374 41.7956C59.0374 35.9316 54.2437 31.1407 48.3825 31.1407H46.03L46.03 31.1421Z" fill="black"/>
</svg>