<svg xmlns="http://www.w3.org/2000/svg" width="64" height="64" viewBox="0 0 64 64" fill="none">
  <path d="M4.26172 37.1685V5.78824C4.26172 4.61576 5.22172 3.65576 6.3942 3.65576H21.0753C22.2128 3.65576 22.964 4.64824 23.5128 5.52328L26.439 10.1833H48.3265C50.094 10.1833 51.5365 11.6258 51.5365 13.3895V36.4034C53.2865 36.5871 54.949 36.9559 56.334 37.5121C57.5852 38.0159 59.6615 39.1884 59.6615 40.7721V55.0121C59.6615 56.3734 58.389 57.5671 56.334 58.3884C52.1878 60.0496 45.5628 60.0496 41.4167 58.3884C41.1054 58.2647 40.8104 58.1297 40.5379 57.9884C36.3954 60.1247 29.004 60.0971 24.7416 58.3884C22.6866 57.5659 21.4141 56.3721 21.4141 55.0121V41.5561H8.64929C6.2318 41.5561 4.26177 39.5824 4.26177 37.1686L4.26172 37.1685ZM50.5343 36.3185V20.0972C50.5343 18.8822 49.5418 17.8859 48.3267 17.8859H15.2318C14.0205 17.8859 13.0243 18.8822 13.0243 20.0972C13.0243 25.7846 13.0318 31.4785 13.0318 37.1686C13.0318 38.4836 12.4405 39.7199 11.4268 40.5523H21.4156V31.1411C21.4156 29.5574 23.4918 28.3849 24.7431 27.8811C28.8893 26.2199 35.5143 26.2199 39.6604 27.8811C40.9117 28.3849 42.9879 29.5574 42.9879 31.1411V36.9913C45.2479 36.3788 47.9505 36.1563 50.5341 36.3188L50.5343 36.3185ZM38.3593 39.791C34.2281 40.9922 28.4767 40.8434 24.7417 39.3485C23.778 38.9622 22.9842 38.4947 22.4142 37.9635V40.6772C22.4142 41.591 23.4455 42.4597 25.1142 43.1297C28.6367 44.5397 34.1782 44.6784 38.0891 43.5372V40.7735C38.0904 40.4247 38.1891 40.096 38.3591 39.7909L38.3593 39.791ZM38.0906 44.5747C33.9806 45.691 28.3994 45.5172 24.7428 44.0535C23.7791 43.6672 22.9853 43.1997 22.4153 42.6684V45.3822C22.4153 46.296 23.4466 47.1647 25.1153 47.8347C28.6378 49.2447 34.1793 49.3834 38.0903 48.2422L38.0906 44.5747ZM38.0906 49.2797C33.9806 50.396 28.3994 50.226 24.7428 48.7585C23.7791 48.3722 22.9853 47.9047 22.4153 47.376V50.0872C22.4153 51.001 23.4466 51.8735 25.1153 52.5397C28.6378 53.9535 34.1793 54.0884 38.0903 52.9509L38.0906 49.2797ZM38.0906 53.9847C33.9806 55.1047 28.3994 54.931 24.7428 53.4635C23.7791 53.0772 22.9853 52.6097 22.4153 52.0823V55.0123C22.4153 55.926 23.4466 56.7948 25.1153 57.4648C29.059 59.0448 35.6103 59.041 39.5265 57.366C38.6128 56.686 38.0915 55.8848 38.0915 55.0135V53.9848L38.0906 53.9847ZM46.498 47.685C45.8431 47.6287 45.9343 46.6362 46.5868 46.6925C48.0968 46.8338 49.6555 46.8338 51.1643 46.6925C51.8168 46.6363 51.908 47.6275 51.253 47.685C49.673 47.835 48.078 47.835 46.498 47.685ZM46.498 52.3275C45.8431 52.2675 45.9343 51.275 46.5868 51.335C48.0968 51.4738 49.6555 51.4738 51.1643 51.335C51.8168 51.275 51.908 52.2675 51.253 52.3275C49.673 52.4725 48.078 52.4725 46.498 52.3275ZM46.498 57.0575C45.8431 56.9975 45.9343 56.005 46.5868 56.065C48.0968 56.2063 49.6555 56.2063 51.1643 56.065C51.8168 56.005 51.908 56.9975 51.253 57.0575C49.673 57.2063 48.078 57.2063 46.498 57.0575ZM58.6628 42.8853C58.0928 43.4128 57.2991 43.8815 56.3353 44.2703C52.1891 45.9315 45.5641 45.9315 41.418 44.2703C40.4543 43.8803 39.6605 43.4128 39.0905 42.8853V45.599C39.0905 46.5128 40.1217 47.3853 41.7905 48.0515C45.6917 49.6177 52.0657 49.6177 55.9643 48.0515C57.6331 47.3853 58.6643 46.514 58.6643 45.599V42.8853H58.6628ZM58.6628 47.594C58.0928 48.1215 57.2991 48.5903 56.3353 48.979C52.1891 50.6402 45.5641 50.6402 41.418 48.979C40.4543 48.589 39.6605 48.1215 39.0905 47.594V50.3078C39.0905 51.219 40.1217 52.0903 41.7905 52.7602C45.6917 54.3228 52.0657 54.3228 55.9643 52.7602C57.6331 52.0903 58.6643 51.219 58.6643 50.3078V47.594H58.6628ZM58.6628 52.299C58.0928 52.8303 57.2991 53.2978 56.3353 53.684C52.1891 55.3453 45.5641 55.3453 41.418 53.684C40.4543 53.2978 39.6605 52.8303 39.0905 52.299V55.0128C39.0905 55.9265 40.1217 56.7953 41.7905 57.4653C45.6917 59.0278 52.0657 59.0278 55.9643 57.4653C57.6331 56.7953 58.6643 55.9278 58.6643 55.0128V52.299H58.6628ZM55.9628 38.4377C52.0653 36.8752 45.6903 36.8752 41.789 38.4377C40.124 39.1077 39.0927 39.9752 39.0927 40.8902C39.0927 41.8039 40.124 42.6764 41.789 43.3426C45.6902 44.9089 52.0642 44.9089 55.9628 43.3426C57.6316 42.6764 58.6628 41.8051 58.6628 40.8902C58.6628 39.9752 57.6316 39.1077 55.9628 38.4377ZM29.8231 38.1477C29.1681 38.0877 29.2594 37.0952 29.9119 37.1552C31.4218 37.294 32.9806 37.294 34.4893 37.1552C35.1418 37.0952 35.2331 38.0877 34.5781 38.1477C32.9981 38.2927 31.4043 38.2927 29.8231 38.1477ZM29.8231 42.7852C29.1681 42.7252 29.2594 41.7327 29.9119 41.7927C31.4218 41.9314 32.9806 41.9314 34.4893 41.7927C35.1418 41.7327 35.2331 42.7252 34.5781 42.7852C32.9981 42.9302 31.4043 42.9302 29.8231 42.7852ZM29.8231 47.6852C29.1681 47.6289 29.2594 46.6364 29.9119 46.6927C31.4218 46.8339 32.9806 46.8339 34.4893 46.6927C35.1418 46.6364 35.2331 47.6277 34.5781 47.6852C32.9981 47.8352 31.4043 47.8352 29.8231 47.6852ZM29.8231 52.3277C29.1681 52.2677 29.2594 51.2752 29.9119 51.3352C31.4218 51.474 32.9806 51.474 34.4893 51.3352C35.1418 51.2752 35.2331 52.2677 34.5781 52.3277C32.9981 52.4727 31.4043 52.4727 29.8231 52.3277ZM29.8231 57.0577C29.1681 56.9977 29.2594 56.0052 29.9119 56.0652C31.4218 56.2065 32.9806 56.2065 34.4893 56.0652C35.1418 56.0052 35.2331 56.9977 34.5781 57.0577C32.9981 57.2065 31.4043 57.2065 29.8231 57.0577ZM41.9879 33.254C41.4179 33.7815 40.6242 34.2528 39.6604 34.639C35.5141 36.3002 28.8892 36.3002 24.743 34.639C23.7793 34.2527 22.9856 33.7815 22.4155 33.254V35.9715C22.4155 36.8814 23.4468 37.754 25.1155 38.424C29.0168 39.9865 35.3907 39.9865 39.2894 38.424C40.3706 37.9877 41.9894 37.2127 41.9894 35.8477V33.2539L41.9879 33.254ZM39.2879 28.8065C35.3904 27.244 29.0154 27.244 25.114 28.8065C23.449 29.4764 22.4178 30.3477 22.4178 31.2589C22.4178 32.1727 23.449 33.0452 25.114 33.7139C29.0153 35.2764 35.3892 35.2764 39.2879 33.7139C40.9566 33.0439 41.9879 32.1727 41.9879 31.2589C41.9879 30.349 40.9566 29.4764 39.2879 28.8065ZM9.1519 37.1841C9.1519 37.8428 8.14939 37.8428 8.14939 37.1841V16.5926C8.14939 14.8276 9.59563 13.3864 11.3594 13.3864H44.4544C46.2194 13.3864 47.6606 14.8289 47.6606 16.5926V16.8863H48.3268C49.1806 16.8863 49.9606 17.2226 50.5344 17.7726V13.3901C50.5344 12.1751 49.5419 11.1826 48.3268 11.1826H26.1668C25.9756 11.1826 25.8093 11.0726 25.7243 10.9138L22.6706 6.05631C22.3406 5.53506 21.7668 4.65631 21.0756 4.65631H6.39559C5.77185 4.65631 5.26183 5.16631 5.26183 5.79007V37.1703C5.26183 39.0303 6.78556 40.5541 8.64935 40.5541C10.5093 40.5541 12.0331 39.0303 12.0331 37.1703C12.0331 31.4802 12.0256 25.789 12.0256 20.0989C12.0256 18.3313 13.4681 16.8888 15.2318 16.8888H46.6606V16.5951C46.6606 15.3801 45.6644 14.3876 44.4531 14.3876H11.3592C10.1442 14.3876 9.15171 15.3838 9.15171 16.5951L9.1519 37.1841Z" fill="black"/>
</svg>