<svg xmlns="http://www.w3.org/2000/svg" width="64" height="64" viewBox="0 0 64 64" fill="none">
  <path d="M11.9727 14.6112H16.0403C19.399 5.80265 29.3416 1.41225 38.1155 4.87358C42.733 6.69481 46.1016 10.3162 47.7432 14.6112H51.8107C54.2307 14.6112 56.2119 16.5924 56.2119 19.0149V24.1274C57.3494 24.3574 58.2069 25.3637 58.2069 26.5686C58.2069 27.7736 57.3494 28.7799 56.2119 29.0099V45.94C56.2119 48.36 54.2307 50.3412 51.8107 50.3412H38.527L40.912 56.0036H45.022C45.5182 56.0036 45.972 56.2061 46.297 56.5311C47.002 57.2361 47.002 58.3736 46.297 59.0786C45.9707 59.4049 45.517 59.6061 45.022 59.6061H18.7596C18.2633 59.6061 17.8133 59.4036 17.4871 59.0786C16.7821 58.3736 16.7821 57.2361 17.4871 56.5311C17.8133 56.2049 18.2634 56.0036 18.7596 56.0036H22.8733L25.2546 50.3412H11.9735C9.54976 50.3412 7.57227 48.36 7.57227 45.94V19.0152C7.57352 16.5915 9.54976 14.6114 11.9735 14.6114L11.9727 14.6112ZM45.0213 57.0037H18.7589C18.5389 57.0037 18.3414 57.0962 18.1951 57.2412C17.8801 57.5525 17.8801 58.0562 18.1951 58.3712C18.3401 58.5162 18.5389 58.6087 18.7589 58.6087H45.0213C45.245 58.6087 45.4425 58.5162 45.5888 58.3712C45.9038 58.0562 45.9038 57.5525 45.5888 57.2412C45.4426 57.095 45.2451 57.0037 45.0213 57.0037ZM39.83 56.0037L37.445 50.3413H26.3335L23.9523 56.0037H39.83ZM21.246 37.3776C21.0648 35.8576 19.6973 34.7876 18.181 34.9713C17.476 35.0563 16.806 35.4076 16.3385 36.0026C15.0173 37.6888 13.6285 39.6138 12.246 41.2189C11.7885 41.8101 11.6123 42.5401 11.6973 43.2351C11.8785 44.7551 13.246 45.8251 14.7623 45.6414C15.4635 45.5564 16.1373 45.2051 16.6048 44.6101L20.6836 39.4126C21.1498 38.8151 21.3311 38.0789 21.2461 37.3776L21.246 37.3776ZM43.7522 25.3403C46.3347 18.7851 43.1246 11.3829 36.5735 8.79625C30.0183 6.21001 22.6162 9.42377 20.0295 15.9749C17.447 22.5264 20.657 29.9323 27.2082 32.5147C33.7607 35.1022 41.1655 31.8921 43.7522 25.3397V25.3403ZM44.6809 25.7015C41.8959 32.7628 33.906 36.2327 26.8473 33.4476C19.786 30.6626 16.3161 22.6727 19.1012 15.614C21.8862 8.5527 29.8724 5.08017 36.9348 7.8679C43.9972 10.6541 47.466 18.6402 44.6809 25.7015ZM19.8169 34.1852C20.5507 34.4577 21.1806 34.954 21.6206 35.599L22.6169 34.3302C22.8407 34.0615 23.1344 34.0327 23.4994 34.2452C24.2894 34.734 25.1369 35.159 26.0294 35.5103C34.2358 38.749 43.5046 34.7277 46.743 26.5204C49.9818 18.3129 45.9605 9.04146 37.7542 5.80679C29.5478 2.56802 20.2753 6.58929 17.0406 14.7967C14.6169 20.9305 16.2581 27.6628 20.6657 32.0207C20.9707 32.3107 20.9707 32.6544 20.7219 33.0344L19.8169 34.1852ZM10.7566 42.1175H8.5704V45.9412C8.5704 47.8125 10.1017 49.3425 11.9716 49.3425H51.809C53.6802 49.3425 55.2102 47.8112 55.2102 45.9412V42.1175H19.8241L17.3866 45.225C16.7491 46.04 15.8341 46.5188 14.8778 46.6313C12.8153 46.8788 10.9516 45.4125 10.7041 43.3538C10.6541 42.9438 10.6716 42.525 10.7566 42.1175H10.7566ZM15.6929 15.6135H11.9717C10.1004 15.6135 8.57045 17.1448 8.57045 19.0147V41.1187H11.1217C11.2205 40.9312 11.3417 40.75 11.4755 40.5837L15.5542 35.3862C16.1917 34.575 17.1067 34.0925 18.063 33.98C18.2867 33.9513 18.5092 33.945 18.7255 33.9588L19.813 32.5762C15.523 28.2213 13.7794 21.7224 15.693 15.6136L15.6929 15.6135ZM33.0732 12.2835H30.7094V27.4099H33.0732V12.2835ZM30.2057 11.2835H33.5719C33.8481 11.2835 34.0719 11.5072 34.0719 11.7835V27.9083C34.0719 28.1845 33.8481 28.4083 33.5719 28.4083H30.2057C29.9332 28.4083 29.7057 28.1845 29.7057 27.9083V11.7835C29.7069 11.5072 29.9332 11.2835 30.2057 11.2835ZM27.0169 18.0333H24.6494V27.4083H27.0169V18.0333ZM24.1507 17.0346H27.5169C27.7932 17.0346 28.0169 17.2583 28.0169 17.5346V27.9095C28.0169 28.1857 27.7932 28.4095 27.5169 28.4095H24.1507C23.8744 28.4095 23.6507 28.1857 23.6507 27.9095V17.5346C23.6507 17.2571 23.8744 17.0346 24.1507 17.0346ZM39.132 18.0333H36.7645V27.4083H39.132V18.0333ZM36.2658 17.0346H39.632C39.9083 17.0346 40.132 17.2583 40.132 17.5346V27.9095C40.132 28.1857 39.9083 28.4095 39.632 28.4095H36.2658C35.9895 28.4095 35.7658 28.1857 35.7658 27.9095V17.5346C35.7658 17.2571 35.9895 17.0346 36.2658 17.0346ZM45.5596 36.721C45.0246 36.721 44.5884 37.1572 44.5884 37.6922C44.5884 38.2272 45.0246 38.6597 45.5596 38.6597C46.0946 38.6597 46.5271 38.2272 46.5271 37.6922C46.5271 37.1572 46.0946 36.721 45.5596 36.721ZM51.2786 31.4597C50.7973 30.9772 50.0098 30.9772 49.5286 31.4597C49.0498 31.9385 49.0498 32.7285 49.5286 33.206C50.0098 33.6885 50.7973 33.6885 51.2786 33.206C51.7573 32.7272 51.7573 31.9372 51.2786 31.4597ZM55.711 25.0773C54.886 25.0773 54.2198 25.7436 54.2198 26.5686C54.2198 27.3936 54.886 28.0598 55.711 28.0598C56.5361 28.0598 57.2023 27.3936 57.2023 26.5686C57.2023 25.7436 56.5373 25.0773 55.711 25.0773ZM46.3884 35.9024L48.5284 33.5537C47.9684 32.6886 48.0646 31.5086 48.8221 30.7512C49.5271 30.0461 50.6009 29.9149 51.4446 30.3549L53.6346 27.9524C53.3721 27.5561 53.2171 27.0811 53.2171 26.5699C53.2171 25.3649 54.0746 24.3586 55.2121 24.1249V19.0149C55.2121 17.1436 53.6808 15.6137 51.8109 15.6137H48.0909C49.2033 19.1812 49.1534 23.1363 47.6759 26.8814C44.2359 35.5977 34.3809 39.8777 25.6647 36.4377C24.7934 36.0939 23.9672 35.6864 23.1884 35.2227L22.1009 36.6052C22.1646 36.8139 22.2146 37.0339 22.2396 37.2602C22.3571 38.2139 22.1084 39.2127 21.4709 40.0277L20.6134 41.119H55.2134V29.0112C54.8984 28.9475 54.6072 28.8275 54.3459 28.6575L52.2059 31.0062C52.8471 31.8775 52.7759 33.125 51.9859 33.915C51.2484 34.6525 50.1084 34.7612 49.2509 34.2475L47.1609 36.5399C47.3946 36.8662 47.5296 37.2625 47.5296 37.6912C47.5296 38.7749 46.6508 39.6574 45.5634 39.6574C44.4759 39.6574 43.5933 38.7749 43.5933 37.6912C43.5933 36.6037 44.4759 35.7212 45.5634 35.7212C45.8534 35.7224 46.1334 35.7862 46.3884 35.9024ZM31.8897 45.1824C32.166 45.1824 32.3935 45.4062 32.3935 45.6824C32.3935 45.9587 32.1672 46.1824 31.8897 46.1824C31.6135 46.1824 31.3897 45.9587 31.3897 45.6824C31.3897 45.4062 31.6135 45.1824 31.8897 45.1824Z" fill="black"/>
</svg>