<svg xmlns="http://www.w3.org/2000/svg" width="64" height="64" viewBox="0 0 64 64" fill="none">
  <path d="M12.3218 16.8736C11.3618 17.5748 10.7668 18.5324 10.7668 19.5699C10.7668 23.2799 21.7508 23.2799 21.7508 19.5699C21.7508 18.5311 21.1559 17.5749 20.1959 16.8736C19.1933 16.1399 17.8009 15.6836 16.2596 15.6836C14.7183 15.6836 13.3258 16.1399 12.3221 16.8736H12.3218ZM9.76433 19.5699C9.76433 18.1949 10.5193 16.9586 11.7306 16.0687C12.4218 15.5649 13.2618 15.1724 14.1931 14.9386C13.0481 14.2224 12.3506 12.9761 12.3506 11.6186C12.3506 9.46113 14.1005 7.70988 16.2593 7.70988C18.4168 7.70988 20.1681 9.45985 20.1681 11.6186C20.1681 12.9761 19.4706 14.2224 18.3218 14.9386C19.2568 15.1724 20.0968 15.5661 20.7881 16.0687C21.9993 16.9574 22.7506 18.1949 22.7506 19.5699C22.7506 24.6299 9.76444 24.6299 9.76444 19.5699H9.76433ZM13.3493 11.6184C13.3493 13.2234 14.6531 14.5272 16.2581 14.5272C17.8631 14.5272 19.1668 13.2234 19.1668 11.6184C19.1681 7.76343 13.3492 7.80593 13.3492 11.6184H13.3493ZM51.4619 16.8734C50.4556 16.1396 49.0631 15.6834 47.5219 15.6834C45.9807 15.6834 44.5881 16.1409 43.5856 16.8734C42.6256 17.5746 42.0306 18.5322 42.0306 19.5697C42.0306 23.2796 53.0146 23.2796 53.0146 19.5697C53.0134 18.5322 52.4184 17.5747 51.4622 16.8734H51.4619ZM54.0169 19.5697C54.0169 24.6297 41.0307 24.6297 41.0307 19.5697C41.0307 18.1947 41.782 16.9584 42.9932 16.0684C43.6845 15.5647 44.5245 15.1722 45.4595 14.9384C44.312 14.2221 43.6132 12.9759 43.6132 11.6184C43.6132 9.46092 45.3632 7.70967 47.522 7.70967C49.6808 7.70967 51.4307 9.45964 51.4307 11.6184C51.4307 12.9759 50.7332 14.2221 49.5882 14.9384C50.5207 15.1722 51.3632 15.5659 52.0507 16.0684C53.262 16.9585 54.017 18.1947 54.017 19.5697H54.0169ZM50.4306 11.6182C50.4306 7.80572 44.613 7.76322 44.613 11.6182C44.613 13.2232 45.9168 14.5269 47.5218 14.5269C49.1305 14.5269 50.4305 13.2232 50.4305 11.6182H50.4306ZM31.892 28.2545C30.0282 28.2545 28.5182 29.7644 28.5182 31.6245C28.5182 33.4882 30.0282 34.9945 31.892 34.9945C33.752 34.9945 35.262 33.4883 35.262 31.6245C35.262 29.7633 33.752 28.2545 31.892 28.2545ZM27.5057 36.2731C28.1682 35.9006 28.9157 35.6106 29.7232 35.4231C28.3632 34.6431 27.5195 33.2019 27.5195 31.6243C27.5195 29.2119 29.4757 27.2556 31.892 27.2556C34.3044 27.2556 36.2607 29.2119 36.2607 31.6243C36.2607 33.2006 35.417 34.6431 34.057 35.4231C34.8645 35.6106 35.612 35.9019 36.2745 36.2731C37.472 35.1219 38.2157 33.5056 38.2157 31.7131C38.2157 28.2194 35.3844 25.3846 31.8909 25.3846C28.3934 25.3846 25.5624 28.2196 25.5624 31.7131C25.5636 33.5056 26.3086 35.1207 27.5061 36.2731H27.5057ZM24.5895 40.7981C24.5895 40.7481 24.5857 40.7019 24.5857 40.6531C24.5857 39.1681 25.3719 37.8219 26.6544 36.8369C25.3607 35.5157 24.5644 33.7081 24.5644 31.7131C24.5644 27.6669 27.8456 24.3857 31.8919 24.3857C35.9344 24.3857 39.2156 27.6669 39.2156 31.7131C39.2156 33.7081 38.4181 35.5157 37.1256 36.8369C38.4081 37.8219 39.1943 39.1681 39.1943 40.6531C39.1943 40.7031 39.1906 40.7494 39.1906 40.7981C39.9844 40.1569 40.6968 39.4131 41.2993 38.5944C40.6581 37.7832 40.3244 37.0032 40.2793 36.2981C40.2331 35.5581 40.5093 34.8919 41.0656 34.3994C41.5931 33.9356 42.3831 33.6194 43.4118 33.4994C43.5931 32.3269 43.5931 31.0969 43.4118 29.9281C42.3843 29.8081 41.5943 29.4881 41.0656 29.0244C40.5093 28.5356 40.2331 27.8694 40.2793 27.1256C40.3256 26.4244 40.6581 25.6406 41.2993 24.8331C40.5906 23.8694 39.7331 23.0119 38.7731 22.3069C37.9618 22.9481 37.1781 23.2819 36.4768 23.3244C35.7331 23.3706 35.0706 23.0981 34.5781 22.5381C34.1143 22.0106 33.7956 21.2232 33.6781 20.1956C32.5056 20.0144 31.2756 20.0144 30.1031 20.1956C29.9856 21.2232 29.6668 22.0094 29.2031 22.5381C28.7106 23.0981 28.0481 23.3706 27.3043 23.3244C26.6031 23.2819 25.8193 22.9494 25.0118 22.3069C24.0481 23.0119 23.1906 23.8694 22.4856 24.8331C23.1268 25.6407 23.4593 26.4244 23.5031 27.1256C23.5493 27.8693 23.2731 28.5356 22.7168 29.0244C22.1893 29.4881 21.4018 29.8069 20.3743 29.9281C20.1906 31.0969 20.1906 32.3269 20.3743 33.4994C21.4018 33.6194 22.1881 33.9356 22.7168 34.3994C23.2731 34.8919 23.5493 35.5581 23.5031 36.2981C23.4606 37.0032 23.1281 37.7832 22.4856 38.5944C23.0831 39.4119 23.7956 40.1556 24.5893 40.7981H24.5895ZM25.8757 41.7156C27.7644 44.9257 38.1957 44.5719 38.1957 40.6531C38.1957 39.4519 37.5082 38.3494 36.4032 37.5382C35.252 36.6982 33.6532 36.1744 31.8895 36.1744C30.1282 36.1744 28.5307 36.6994 27.3795 37.5382C26.2745 38.3494 25.587 39.4519 25.587 40.6531C25.587 40.7094 25.5907 40.7631 25.5945 40.8156C25.6545 41.1206 25.7645 41.4106 25.9132 41.6906L25.8757 41.7156ZM41.4384 27.9316H47.3136C50.5236 27.9316 53.4298 26.6279 55.5312 24.5266C57.6362 22.4216 58.9362 19.5166 58.9362 16.3069C58.9362 13.1007 57.6362 10.1906 55.5312 8.08929C53.4299 5.98428 50.5249 4.68428 47.3136 4.68428C44.1035 4.68428 41.1973 5.98428 39.096 8.08929C36.9909 10.1943 35.6909 13.0993 35.6909 16.3069V22.1709C35.9035 22.2909 36.1484 22.3446 36.4135 22.3271C36.9872 22.2921 37.6709 21.9584 38.416 21.2996C38.5997 21.1396 38.866 21.1371 39.0497 21.2784C40.3435 22.1684 41.4522 23.2809 42.341 24.5771C42.4185 24.6909 42.5247 25.0134 42.3022 25.1872C41.6472 25.9309 41.3097 26.6147 41.2747 27.1897C41.2572 27.4684 41.311 27.7122 41.4385 27.9322L41.4384 27.9316ZM13.5594 43.969C13.5594 40.1565 19.377 40.114 19.377 43.969C19.377 45.574 18.077 46.8777 16.4683 46.8777C14.8633 46.8777 13.5595 45.574 13.5595 43.969H13.5594ZM9.97692 51.9188C9.97692 56.9788 22.9631 56.9788 22.9631 51.9188C22.9631 50.5439 22.2081 49.3039 20.9968 48.4176C20.3093 47.9151 19.4656 47.5214 18.5343 47.2876C19.6793 46.5713 20.3768 45.3251 20.3768 43.9676C20.3768 41.8101 18.6268 40.0588 16.4681 40.0588C14.3106 40.0588 12.5593 41.8088 12.5593 43.9676C12.5593 45.3251 13.2568 46.5713 14.4056 47.2876C13.4706 47.5213 12.6306 47.9151 11.9393 48.4176C10.7281 49.3051 9.97681 50.5451 9.97681 51.9188H9.97692ZM12.5319 49.2226C13.5344 48.4888 14.9269 48.0326 16.4682 48.0326C18.0094 48.0326 19.4019 48.4901 20.4082 49.2226C21.3644 49.9238 21.9607 50.8814 21.9607 51.9188C21.9607 55.6288 10.9767 55.6288 10.9767 51.9188C10.9754 50.8814 11.5704 49.9251 12.5316 49.2226H12.5319ZM16.4682 58.7362C19.6819 58.7362 22.5844 57.4362 24.6858 55.3349C26.7908 53.2299 28.0908 50.3212 28.0908 47.1152V44.334C26.737 43.8977 25.6245 43.204 25.037 42.2465C24.9308 42.2502 24.8208 42.2152 24.732 42.144C23.4383 41.2539 22.3295 40.1415 21.4433 38.849C21.3658 38.7352 21.2558 38.4127 21.4783 38.2365C22.1333 37.4928 22.4708 36.809 22.5058 36.234C22.5233 35.9577 22.4708 35.709 22.3433 35.494H16.4681C13.2581 35.494 10.3518 36.794 8.25049 38.899C6.14676 40.999 4.84548 43.9053 4.84548 47.115C4.84548 50.3248 6.14548 53.2313 8.25049 55.3347C10.3517 57.436 13.258 58.736 16.4681 58.736L16.4682 58.7362ZM50.2218 43.9687C50.2218 45.5737 48.918 46.8775 47.313 46.8775C45.708 46.8775 44.4043 45.5737 44.4043 43.9687C44.403 40.1124 50.2219 40.1549 50.2219 43.9687H50.2218ZM53.8043 51.9186C53.8043 50.5436 53.053 49.3036 51.8418 48.4174C51.1505 47.9148 50.3105 47.5211 49.3755 47.2873C50.5231 46.5711 51.2218 45.3248 51.2218 43.9673C51.2218 41.8098 49.4718 40.0586 47.313 40.0586C45.1555 40.0586 43.4043 41.8086 43.4043 43.9673C43.4043 45.3248 44.1018 46.5711 45.2468 47.2873C44.3143 47.5211 43.4755 47.9148 42.7843 48.4174C41.573 49.3036 40.818 50.5436 40.818 51.9186C40.818 56.9786 53.8042 56.9786 53.8042 51.9186H53.8043ZM51.2493 49.2223C52.2093 49.9235 52.8043 50.8811 52.8043 51.9186C52.8043 55.6286 41.8203 55.6286 41.8203 51.9186C41.8203 50.8798 42.4153 49.9236 43.3753 49.2223C44.3778 48.4886 45.7703 48.0323 47.3115 48.0323C48.8528 48.0323 50.2465 48.4898 51.249 49.2223H51.2493ZM43.4968 34.4938H47.313C50.7993 34.4938 53.953 35.9038 56.2378 38.19C58.5228 40.4751 59.9341 43.629 59.9341 47.1148C59.9341 50.6011 58.5241 53.7586 56.2378 56.0396C53.9528 58.3247 50.7989 59.7384 47.313 59.7384C43.8268 59.7384 40.6693 58.3247 38.3882 56.0422C36.1032 53.7534 34.6895 50.5957 34.6895 47.1136V44.6011C32.9107 44.9874 30.8732 44.9874 29.0943 44.6011V47.1136C29.0943 50.5961 27.6805 53.7536 25.3955 56.0422C23.113 58.3234 19.9603 59.7384 16.4707 59.7384C12.9844 59.7384 9.83068 58.3247 7.54588 56.0396C5.26086 53.7571 3.84961 50.6007 3.84961 47.1148C3.84961 43.6286 5.25964 40.4748 7.54588 38.19C9.83089 35.905 12.9848 34.4938 16.4707 34.4938H20.2869C20.1669 34.48 20.0457 34.4688 19.9144 34.4588C19.6769 34.445 19.4857 34.2638 19.4532 34.0338C19.1657 32.5 19.1657 30.9263 19.4532 29.3888C19.4844 29.1625 19.6769 28.9813 19.9144 28.9638C20.0457 28.9563 20.1657 28.9463 20.2869 28.9325H16.4707C12.9844 28.9325 9.83068 27.5187 7.54588 25.2337C5.26086 22.9525 3.84961 19.7948 3.84961 16.3089C3.84961 12.8264 5.25964 9.66893 7.54588 7.38413C9.83089 5.10291 12.9848 3.68787 16.4707 3.68787C19.9607 3.68787 23.1144 5.10163 25.3955 7.38413C27.6805 9.66915 29.0943 12.8268 29.0943 16.3089V20.2414C29.1155 20.0814 29.133 19.9152 29.1443 19.7377C29.2255 19.4189 29.3993 19.3052 29.5518 19.2764C31.1005 18.9864 32.6842 18.9864 34.233 19.2764C34.3855 19.3052 34.5592 19.4177 34.6405 19.7377C34.6517 19.9152 34.6692 20.0814 34.6905 20.2414V16.3089C34.6905 12.8264 36.1042 9.66893 38.3893 7.38413C40.6705 5.10291 43.8282 3.68787 47.314 3.68787C50.7999 3.68787 53.954 5.10163 56.2388 7.38413C58.5239 9.66915 59.9351 12.8268 59.9351 16.3089C59.9351 19.7952 58.5251 22.9527 56.2388 25.2337C53.9538 27.5187 50.7999 28.9325 47.314 28.9325H43.4978C43.6178 28.9463 43.7428 28.9575 43.8703 28.9638C44.1078 28.9813 44.299 29.1625 44.3315 29.3888C44.619 30.9263 44.619 32.5 44.3315 34.0338C44.299 34.2638 44.1078 34.445 43.8703 34.4588C43.7403 34.4688 43.6165 34.4788 43.4965 34.4938H43.4968ZM47.3117 58.7364C50.5218 58.7364 53.428 57.4364 55.5294 55.3352C57.6344 53.2302 58.9344 50.3252 58.9344 47.1155C58.9344 43.9058 57.6344 40.9992 55.5294 38.8979C53.4281 36.7929 50.5231 35.4929 47.3117 35.4929H41.4365C41.309 35.7091 41.2553 35.9566 41.274 36.2329C41.309 36.8066 41.6465 37.4904 42.3016 38.2354C42.5253 38.4129 42.4191 38.7354 42.3403 38.8479C41.4503 40.1416 40.3415 41.2541 39.0491 42.1428C38.9603 42.2141 38.8503 42.2491 38.7441 42.2453C38.1553 43.2016 37.0428 43.8966 35.6903 44.3354V47.1129C35.6903 50.3191 36.9903 53.2291 39.0953 55.3326C41.1965 57.4363 44.1016 58.7363 47.3113 58.7363L47.3117 58.7364ZM16.468 4.68311C13.258 4.68311 10.3517 5.98311 8.25041 8.08812C6.1454 10.1893 4.8454 13.0981 4.8454 16.3057C4.8454 19.5157 6.1454 22.422 8.25041 24.5255C10.3516 26.6267 13.2566 27.9305 16.468 27.9305H22.3432C22.4707 27.7105 22.5245 27.4667 22.5057 27.1867C22.4707 26.613 22.1332 25.9292 21.4782 25.1842C21.2544 25.0105 21.3644 24.688 21.4432 24.5742C22.3294 23.2779 23.4382 22.1642 24.7319 21.2754C24.9157 21.1342 25.1857 21.1367 25.3657 21.2967C26.1094 21.9555 26.7932 22.2892 27.3682 22.3242C27.637 22.3417 27.8782 22.2892 28.0907 22.1679V16.3039C28.0907 13.0977 26.7907 10.1914 24.6857 8.08635C22.5832 5.98261 19.682 4.68261 16.4681 4.68261L16.468 4.68311Z" fill="black"/>
</svg>