<svg xmlns="http://www.w3.org/2000/svg" width="200" height="61" viewBox="0 0 200 61" fill="none">
  <path d="M1 30.1074L3.70347 31.0891C6.40694 32.0707 11.8139 34.0339 16.9636 34.3066C22.1134 34.5792 27.006 33.1612 31.7735 30.9212C36.541 28.6812 41.1836 25.6193 46.2468 25.3235C51.3101 25.0277 56.7942 27.498 61.9967 28.1171C67.1991 28.7361 72.1199 27.5039 77.0217 26.146C81.9234 24.7881 86.806 23.3044 92.0011 23.8752C97.1962 24.446 102.704 27.0712 107.939 27.9067C113.175 28.7423 118.138 27.7883 122.908 25.5627C127.677 23.3371 132.254 19.84 137.174 18.6039C142.094 17.3679 147.358 18.3929 152.484 18.5101C157.611 18.6274 162.599 17.837 167.781 18.3255C172.964 18.8139 178.341 20.5812 183.576 21.4179C188.812 22.2546 193.906 22.1607 196.453 22.1137L199 22.0667" stroke="#38756A" stroke-width="2"/>
  <path d="M3.70347 31.0891L1 30.1074V61H199V22.0667L196.453 22.1137C193.906 22.1607 188.812 22.2546 183.576 21.4179C178.341 20.5812 172.964 18.8139 167.781 18.3255C162.599 17.837 157.611 18.6274 152.484 18.5101C147.358 18.3929 142.094 17.3679 137.174 18.6039C132.254 19.84 127.677 23.3371 122.908 25.5627C118.138 27.7883 113.175 28.7423 107.939 27.9067C102.704 27.0711 97.1962 24.446 92.0011 23.8752C86.806 23.3044 81.9234 24.7881 77.0217 26.146C72.1199 27.5039 67.1991 28.7361 61.9967 28.1171C56.7942 27.498 51.3101 25.0277 46.2468 25.3235C41.1836 25.6193 36.541 28.6812 31.7735 30.9212C27.006 33.1612 22.1134 34.5792 16.9636 34.3066C11.8139 34.0339 6.40694 32.0707 3.70347 31.0891Z" fill="#DAE9E7"/>
</svg>