<svg width="220" height="61" viewBox="0 0 220 61" fill="none" xmlns="http://www.w3.org/2000/svg">
<path d="M213.523 9.58824L219 8.4902V59H6V30.451H9.34714L19.0843 28.2549L26.6914 27.1569L30.0386 26.6078L34.2986 27.1569L43.1229 29.3529L50.73 31L55.2943 30.451L64.1186 28.8039L71.7257 26.6078L76.5943 26.0588H79.0286L82.68 26.6078L87.8529 28.2549L94.2429 30.451L98.8071 31H101.546L104.284 29.3529L106.719 26.6078L109.761 21.6667L117.673 8.4902L121.02 4.64706L124.671 3L130.453 4.09804L137.451 7.39216L145.667 9.58824L149.927 10.1373L154.491 13.4314L160.273 22.2157L167.576 31.549L172.749 33.7451L178.226 30.451L186.746 22.2157L193.136 17.8235H195.874L203.481 15.0784L213.523 9.58824Z" fill="#DAE9E7"/>
<path d="M219 8.4902L213.523 9.58824L203.481 15.0784L195.874 17.8235H193.136L186.746 22.2157L178.226 30.451L172.749 33.7451L167.576 31.549L160.273 22.2157L154.491 13.4314L149.927 10.1373L145.667 9.58824L137.451 7.39216L130.453 4.09804L124.671 3L121.02 4.64706L117.673 8.4902L109.761 21.6667L106.719 26.6078L104.284 29.3529L101.546 31H98.8071L94.2429 30.451L87.8529 28.2549L82.68 26.6078L79.0286 26.0588H76.5943L71.7257 26.6078L64.1186 28.8039L55.2943 30.451L50.73 31L43.1229 29.3529L34.2986 27.1569L30.0386 26.6078L26.6914 27.1569L19.0843 28.2549L9.34714 30.451H6" stroke="#38756A"/>
</svg>
